<svg width="469" height="320" viewBox="0 0 469 320" fill="none" xmlns="http://www.w3.org/2000/svg">
<g clip-path="url(#clip0_219_831)">
<path d="M118.173 198.137H23.9075V225.494H118.173V198.137Z" fill="white" stroke="#1F2937" stroke-opacity="0.54" stroke-linecap="round" stroke-linejoin="round"/>
<path d="M89.0178 198.135L86.1237 202.941H55.9565L53.0623 198.135H89.0178Z" fill="white" stroke="#1F2937" stroke-opacity="0.54" stroke-linecap="round" stroke-linejoin="round"/>
<path d="M118.173 225.496H23.9075V252.853H118.173V225.496Z" fill="white" stroke="#1F2937" stroke-opacity="0.54" stroke-linecap="round" stroke-linejoin="round"/>
<path d="M89.0178 225.495L86.1237 230.3H55.9565L53.0623 225.495H89.0178Z" fill="white" stroke="#1F2937" stroke-opacity="0.54" stroke-linecap="round" stroke-linejoin="round"/>
<path d="M118.173 252.855H23.9075V280.212H118.173V252.855Z" fill="white" stroke="#1F2937" stroke-opacity="0.54" stroke-linecap="round" stroke-linejoin="round"/>
<path d="M89.0178 252.854L86.1237 257.659H55.9565L53.0623 252.854H89.0178Z" fill="white" stroke="#1F2937" stroke-opacity="0.54" stroke-linecap="round" stroke-linejoin="round"/>
<path d="M118.173 280.214H23.9075V307.572H118.173V280.214Z" fill="white" stroke="#1F2937" stroke-opacity="0.54" stroke-linecap="round" stroke-linejoin="round"/>
<path d="M89.0178 280.213L86.1237 285.018H55.9565L53.0623 280.213H89.0178Z" fill="white" stroke="#1F2937" stroke-opacity="0.54" stroke-linecap="round" stroke-linejoin="round"/>
<path d="M57.9544 178.654L51.1152 167.015C49.5373 164.328 50.5264 160.811 53.2091 159.879C53.2745 159.856 53.3405 159.835 53.4071 159.815C54.4788 159.501 55.5848 159.641 56.5519 160.126C58.0877 160.896 59.1147 162.55 59.2633 164.35L60.387 177.941" fill="white"/>
<path d="M57.9544 178.654L51.1152 167.015C49.5373 164.328 50.5264 160.811 53.2091 159.879C53.2745 159.856 53.3405 159.835 53.4071 159.815C54.4788 159.501 55.5848 159.641 56.5519 160.126C58.0877 160.896 59.1147 162.55 59.2633 164.35L60.387 177.941" stroke="#1F2937" stroke-opacity="0.54" stroke-linecap="round" stroke-linejoin="round"/>
<path d="M58.0143 177.972L58.3884 164.484C58.4746 161.371 61.1799 158.911 63.9505 159.537C64.0178 159.553 64.085 159.57 64.1523 159.588C65.2276 159.888 66.0921 160.591 66.6551 161.514C67.5489 162.979 67.5428 164.925 66.7138 166.531L60.456 178.654" fill="white"/>
<path d="M58.0143 177.972L58.3884 164.484C58.4746 161.371 61.1799 158.911 63.9505 159.537C64.0178 159.553 64.085 159.57 64.1523 159.588C65.2276 159.888 66.0921 160.591 66.6551 161.514C67.5489 162.979 67.5428 164.925 66.7138 166.531L60.456 178.654" stroke="#1F2937" stroke-opacity="0.54" stroke-linecap="round" stroke-linejoin="round"/>
<path d="M69.4937 176.927H48.1966V198.186H69.4937V176.927Z" fill="white" stroke="#1F2937" stroke-opacity="0.54" stroke-linecap="round" stroke-linejoin="round"/>
<path d="M0.458496 307.572H405.225" stroke="#1F2937" stroke-linecap="round" stroke-linejoin="round"/>
<path d="M79.3279 95.3613L189.746 0.457672L300.164 95.3613" fill="#1F5AF1"/>
<path d="M79.3279 95.3613L189.746 0.457672L300.164 95.3613" stroke="#1F5AF1" stroke-linecap="round" stroke-linejoin="round"/>
<path d="M79.3279 95.3613L179.181 220.97L300.164 95.3613" fill="#1F5AF1"/>
<path d="M79.3279 95.3613L179.181 220.97L300.164 95.3613" stroke="#1F5AF1" stroke-linecap="round" stroke-linejoin="round"/>
<path d="M270.965 22.1475H108.527V202.79H270.965V22.1475Z" fill="white" stroke="#1F5AF1" stroke-linecap="round" stroke-linejoin="round"/>
<path d="M119.496 78.4643H257.912" stroke="#1F5AF1" stroke-linecap="round" stroke-linejoin="round"/>
<path d="M119.496 92.7995H257.912" stroke="#1F5AF1" stroke-linecap="round" stroke-linejoin="round"/>
<path d="M119.496 107.135H257.912" stroke="#1F5AF1" stroke-linecap="round" stroke-linejoin="round"/>
<path d="M119.496 121.471H257.912" stroke="#1F5AF1" stroke-linecap="round" stroke-linejoin="round"/>
<path d="M119.496 135.806H257.912" stroke="#1F5AF1" stroke-linecap="round" stroke-linejoin="round"/>
<path d="M119.496 150.142H257.912" stroke="#1F5AF1" stroke-linecap="round" stroke-linejoin="round"/>
<path d="M119.496 164.477H257.912" stroke="#1F5AF1" stroke-linecap="round" stroke-linejoin="round"/>
<path d="M119.496 178.813H187.992" stroke="#1F5AF1" stroke-linecap="round" stroke-linejoin="round"/>
<path d="M149.476 34.2029H119.496V64.1285H149.476V34.2029Z" fill="white" stroke="#1F5AF1" stroke-linecap="round" stroke-linejoin="round"/>
<path d="M300.164 237.852H79.3279V95.3613L189.746 174.623L300.164 95.3613V237.852Z" fill="white" stroke="#1F5AF1" stroke-linecap="round" stroke-linejoin="round"/>
<path d="M68.864 264.019C83.1735 264.019 94.7737 252.44 94.7737 238.156C94.7737 223.873 83.1735 212.293 68.864 212.293C54.5544 212.293 42.9542 223.873 42.9542 238.156C42.9542 252.44 54.5544 264.019 68.864 264.019Z" fill="#1F5AF1" stroke="#1F2937" stroke-linecap="round" stroke-linejoin="round"/>
<path d="M51.1689 238.747L60.5813 248.358L85.1712 227.953" stroke="#FFFAFA" stroke-linecap="round" stroke-linejoin="round"/>
<path d="M375.303 262.521H319.67V285.1H375.303V262.521Z" fill="#1F5AF1" stroke="#1F2937" stroke-linecap="round" stroke-linejoin="round"/>
<path d="M273.515 263.525C269.631 263.469 265.764 261.964 262.797 259.009C256.742 252.976 256.732 243.186 262.776 237.141L313.03 186.804C319.074 180.76 328.881 180.751 334.937 186.783C340.992 192.815 341.002 202.606 334.958 208.65L284.705 258.987C281.622 262.07 277.559 263.584 273.515 263.525Z" fill="white" stroke="#1F2937" stroke-linecap="round" stroke-linejoin="round"/>
<path d="M323.828 173.943C321.551 173.976 315.657 175.167 309.071 179.849C305.484 182.399 291.969 197.779 289.18 200.97L288.474 201.529L309.8 205.884C309.8 205.884 317.871 191.135 319.449 189.165C322.222 185.702 324.748 182.73 323.189 182.065C321.63 181.401 320.45 182.465 318.234 184.543C310.284 191.993 311.015 185.77 311.031 185.573C311.058 185.246 314.391 181.503 315.243 180.935C318.288 178.905 320.63 177.623 324.24 175.921C325.075 175.528 324.898 173.928 323.829 173.943H323.828Z" fill="white" stroke="#1F2937" stroke-linecap="round" stroke-linejoin="round"/>
<path d="M289.496 201.971L310.631 201.959L316.286 189.565L310.349 180.726L294.393 196.268L289.496 201.971Z" fill="white"/>
<path d="M314.809 179.161C314.809 179.161 317.373 180.242 319.12 181.234C320.037 181.755 321.452 184.621 321.754 185.417C322.788 188.148 321.495 188.625 320.026 187.425C318.644 186.298 318.268 185.001 316.846 184.119C315.519 183.295 311.895 182.814 311.895 182.814" fill="white"/>
<path d="M314.809 179.161C314.809 179.161 317.373 180.242 319.12 181.234C320.037 181.755 321.452 184.621 321.754 185.417C322.788 188.148 321.495 188.625 320.026 187.425C318.644 186.298 318.268 185.001 316.846 184.119C315.519 183.295 311.895 182.814 311.895 182.814" stroke="#1F2937" stroke-linecap="round" stroke-linejoin="round"/>
<path d="M311.985 181.134C311.985 181.134 314.86 182.619 316.508 183.815C317.361 184.434 318.47 187.137 318.582 187.98C318.753 189.275 318.558 189.933 317.616 189.901C316.272 189.856 315.621 187.095 314.199 186.213C312.873 185.39 309.065 183.516 309.065 183.516" fill="white"/>
<path d="M311.985 181.134C311.985 181.134 314.86 182.619 316.508 183.815C317.361 184.434 318.47 187.137 318.582 187.98C318.753 189.275 318.558 189.933 317.616 189.901C316.272 189.856 315.621 187.095 314.199 186.213C312.873 185.39 309.065 183.516 309.065 183.516" stroke="#1F2937" stroke-linecap="round" stroke-linejoin="round"/>
<path d="M312.248 185.199C314.316 187.203 314.156 188.536 314.139 189.241C314.111 190.44 313.283 190.729 312.582 190.14C311.65 189.357 310.44 187.684 309.835 187.371C308.578 186.719 306.353 186.131 306.353 186.131" stroke="#1F2937" stroke-linecap="round" stroke-linejoin="round"/>
<path d="M291.606 193.262L259.272 239.63C256.887 242.971 255.833 247.311 256.77 251.636C258.537 259.787 266.588 264.964 274.753 263.2L275.639 263.009" fill="#1F5AF1"/>
<path d="M275.598 263.227L274.711 263.419C266.546 265.183 258.495 260.005 256.728 251.855C255.791 247.529 256.846 243.189 259.231 239.849L291.565 193.481L313.509 207.337L291.598 241.156" fill="white"/>
<path d="M275.598 263.227L274.711 263.419C266.546 265.183 258.495 260.005 256.728 251.855C255.791 247.529 256.846 243.189 259.231 239.849L291.565 193.481L313.509 207.337L291.598 241.156" stroke="#1F2937" stroke-linecap="round" stroke-linejoin="round"/>
<path d="M323.994 182.324L377.466 182.41C386.324 182.443 392.222 188.266 392.943 193.822C393.764 200.155 388.717 206.342 388.73 206.781C388.926 213.087 387.805 270.647 387.805 270.647L313.332 269.419L315.024 211.007" fill="white"/>
<path d="M323.994 182.324L377.466 182.41C386.324 182.443 392.222 188.266 392.943 193.822C393.764 200.155 388.717 206.342 388.73 206.781C388.926 213.087 387.805 270.647 387.805 270.647L313.332 269.419L315.024 211.007" stroke="#1F2937" stroke-linecap="round" stroke-linejoin="round"/>
<path d="M254.23 285.383C263.587 283.752 272.496 290.002 274.129 299.341C275.763 308.68 269.502 317.574 260.146 319.204" fill="#1F2937"/>
<path d="M264.717 287.588C270.592 289.441 273.45 288.042 278.033 287.243L281.909 309.403C277.326 310.201 272.748 310.505 269.264 313.583" fill="#1F2937"/>
<path d="M266.962 288.173C266.962 288.173 278.636 295.852 271.254 312.161" stroke="white" stroke-linecap="round" stroke-linejoin="round"/>
<path d="M275.26 279.801L406.893 251.217C420.178 248.743 432.956 257.488 435.434 270.749C437.911 284.009 429.151 296.764 415.866 299.237C415.316 299.34 280.995 317.916 280.995 317.916L275.26 279.802" fill="#1F5AF1"/>
<path d="M275.26 279.801L406.893 251.217C420.178 248.743 432.956 257.488 435.434 270.749C437.911 284.009 429.151 296.764 415.866 299.237C415.317 299.34 280.995 317.916 280.995 317.916L275.26 279.802" stroke="#1F2937" stroke-linecap="round" stroke-linejoin="round"/>
<path d="M426.435 320C417.33 317.865 411.683 308.766 413.822 299.678C415.961 290.59 425.076 284.953 434.18 287.088" fill="#1F2937"/>
<path d="M417.792 313.955C413.19 310.009 410.06 310.172 405.6 309.126L410.675 287.563C415.135 288.609 419.398 290.102 423.746 288.659" fill="#1F2937"/>
<path d="M415.985 312.559C415.985 312.559 409.238 296.106 421.392 289.179" stroke="white" stroke-linecap="round" stroke-linejoin="round"/>
<path d="M409.05 319.185C409.05 319.185 276.709 301.438 276.168 301.339C263.076 298.957 254.398 286.434 256.784 273.366C259.17 260.298 271.716 251.636 284.807 254.017L414.542 281.63L409.051 319.184L409.05 319.185Z" fill="#1F5AF1" stroke="#1F2937" stroke-linecap="round" stroke-linejoin="round"/>
<path d="M347.915 156.899C358.421 156.899 366.938 148.397 366.938 137.91C366.938 127.423 358.421 118.922 347.915 118.922C337.409 118.922 328.892 127.423 328.892 137.91C328.892 148.397 337.409 156.899 347.915 156.899Z" fill="#1F2937"/>
<path d="M362.164 155.6C365.098 155.507 367.401 153.027 367.307 150.059C367.218 147.219 364.964 144.968 362.199 144.86C359.877 135.344 351.836 128.289 341.762 128.605C334.188 128.843 331.553 132.991 328.059 139.194C326.21 142.476 327.024 161.538 329.636 165.589C331.383 168.298 334.466 170.085 339.407 170.812L339.8 181.917C339.8 181.917 339.287 192.263 351.03 191.901C364.283 191.492 362.661 180.755 362.661 180.755C362.661 180.755 361.706 156.902 362.062 155.598C362.096 155.598 362.129 155.601 362.163 155.6L362.164 155.6Z" fill="white" stroke="#1F2937" stroke-linecap="round" stroke-linejoin="round"/>
<path d="M323.293 137.566L352.949 137.194C352.949 137.194 351.5 144.503 358.316 147.642L359.413 152.77L361.626 152.7L362.685 144.152L360.427 125.784L344.034 120.711L327.433 126.82L323.294 137.566H323.293Z" fill="#1F2937"/>
<path d="M324.706 142.562C331.504 142.562 337.015 137.061 337.015 130.276C337.015 123.49 331.504 117.989 324.706 117.989C317.908 117.989 312.397 123.49 312.397 130.276C312.397 137.061 317.908 142.562 324.706 142.562Z" fill="#1F2937"/>
<path d="M338.487 134.302C344.358 134.302 349.117 129.551 349.117 123.691C349.117 117.831 344.358 113.08 338.487 113.08C332.616 113.08 327.856 117.831 327.856 123.691C327.856 129.551 332.616 134.302 338.487 134.302Z" fill="#1F2937"/>
<path d="M339.526 170.812C339.526 170.812 344.565 171.723 349.375 168.634L339.526 170.812Z" fill="white"/>
<path d="M339.526 170.812C339.526 170.812 344.565 171.723 349.375 168.634" stroke="#1F2937" stroke-linecap="round" stroke-linejoin="round"/>
<path d="M345.351 149.222L345.34 149.13C345.345 149.004 345.319 148.887 345.262 148.778C345.225 148.664 345.161 148.566 345.072 148.483C344.989 148.394 344.89 148.33 344.777 148.294C344.667 148.236 344.55 148.21 344.423 148.215L344.179 148.248C344.024 148.291 343.889 148.37 343.775 148.483L343.631 148.669C343.548 148.812 343.506 148.966 343.506 149.131L343.517 149.223C343.512 149.349 343.538 149.466 343.596 149.575C343.632 149.689 343.696 149.787 343.785 149.87C343.868 149.959 343.967 150.023 344.08 150.059C344.19 150.117 344.307 150.143 344.434 150.138L344.678 150.105C344.833 150.062 344.968 149.983 345.082 149.869L345.226 149.684C345.309 149.541 345.351 149.387 345.351 149.222Z" fill="#1F2937"/>
<path d="M334.304 150.121L334.293 150.03C334.298 149.904 334.272 149.786 334.214 149.677C334.178 149.564 334.114 149.465 334.025 149.382C333.942 149.293 333.843 149.23 333.73 149.193C333.62 149.136 333.503 149.11 333.376 149.114L333.132 149.147C332.977 149.191 332.842 149.269 332.728 149.383L332.584 149.568C332.501 149.711 332.459 149.865 332.459 150.03L332.47 150.122C332.465 150.248 332.491 150.365 332.549 150.475C332.585 150.588 332.649 150.686 332.738 150.769C332.821 150.859 332.92 150.922 333.033 150.959C333.143 151.016 333.26 151.042 333.387 151.037L333.631 151.004C333.786 150.961 333.921 150.882 334.035 150.769L334.179 150.583C334.262 150.441 334.304 150.287 334.304 150.121Z" fill="#1F2937"/>
<path d="M336.695 152.377L336.179 154.983C336.083 155.464 336.508 155.888 336.99 155.792L339.28 155.337" fill="white"/>
<path d="M336.695 152.377L336.179 154.983C336.083 155.464 336.508 155.888 336.99 155.792L339.28 155.337" stroke="#1F2937" stroke-linecap="round" stroke-linejoin="round"/>
<path d="M342.218 143.083C342.218 143.083 345.502 141.875 347.231 144.032L342.218 143.083Z" fill="white"/>
<path d="M342.218 143.083C342.218 143.083 345.502 141.875 347.231 144.032" stroke="#1F2937" stroke-linecap="round" stroke-linejoin="round"/>
<path d="M329.704 145.904C329.704 145.904 331.917 143.196 334.505 144.175L329.704 145.904Z" fill="white"/>
<path d="M329.704 145.904C329.704 145.904 331.917 143.196 334.505 144.175" stroke="#1F2937" stroke-linecap="round" stroke-linejoin="round"/>
<path d="M349.375 168.634L339.746 179.831L339.449 171.163C339.449 171.163 342.416 171.125 345.349 170.236C348.282 169.347 349.375 168.634 349.375 168.634Z" fill="#1F2937" stroke="#1F2937" stroke-linecap="round" stroke-linejoin="round"/>
<path d="M345.002 158.977C345.002 158.977 343.667 161.476 340.398 160.284L345.002 158.977Z" fill="white"/>
<path d="M345.002 158.977C345.002 158.977 343.667 161.476 340.398 160.284" stroke="#1F2937" stroke-linecap="round" stroke-linejoin="round"/>
<path d="M346.178 250.278C347.478 248.411 351.761 244.198 359.331 241.362C363.453 239.818 383.783 237.224 387.994 236.698L388.853 236.426L380.554 256.513C380.554 256.513 363.79 254.953 361.271 255.158C356.844 255.519 352.963 255.949 353.282 254.287C353.602 252.626 355.145 252.244 358.11 251.57C368.742 249.152 363.164 246.28 362.991 246.183C362.704 246.023 357.732 246.69 356.784 247.078C353.396 248.464 351.022 249.685 347.591 251.723C346.798 252.194 345.567 251.154 346.178 250.278Z" fill="white" stroke="#1F2937" stroke-linecap="round" stroke-linejoin="round"/>
<path d="M388.649 237.519L376.828 255.008L363.371 252.765L359.345 242.91L381.174 238.387L388.649 237.519Z" fill="white"/>
<path d="M355.552 245.728C355.552 245.728 355.018 248.455 354.866 250.454C354.786 251.505 356.376 254.278 356.869 254.973C358.561 257.354 359.679 256.551 359.504 254.664C359.34 252.891 358.472 251.854 358.533 250.185C358.591 248.627 360.216 245.357 360.216 245.357" fill="white"/>
<path d="M355.552 245.728C355.552 245.728 355.018 248.455 354.866 250.454C354.786 251.505 356.376 254.278 356.869 254.973C358.561 257.354 359.679 256.551 359.504 254.664C359.34 252.891 358.472 251.854 358.533 250.185C358.591 248.627 360.216 245.357 360.216 245.357" stroke="#1F2937" stroke-linecap="round" stroke-linejoin="round"/>
<path d="M358.77 244.493C358.77 244.493 358.396 247.702 358.469 249.735C358.507 250.788 360.133 253.215 360.771 253.779C361.751 254.644 362.407 254.85 362.907 254.054C363.62 252.916 361.69 250.834 361.752 249.164C361.81 247.606 362.381 243.407 362.381 243.407" fill="white"/>
<path d="M358.77 244.493C358.77 244.493 358.396 247.702 358.469 249.735C358.507 250.788 360.133 253.215 360.771 253.779C361.751 254.644 362.407 254.85 362.907 254.054C363.62 252.916 361.69 250.834 361.752 249.164C361.81 247.606 362.381 243.407 362.381 243.407" stroke="#1F2937" stroke-linecap="round" stroke-linejoin="round"/>
<path d="M362 246.982C362.51 249.814 363.707 250.426 364.302 250.806C365.315 251.452 366.016 250.928 365.919 250.019C365.79 248.81 365.076 246.873 365.154 246.197C365.315 244.793 366.07 242.622 366.07 242.622" stroke="#1F2937" stroke-linecap="round" stroke-linejoin="round"/>
<path d="M393.021 266.182H297.062C295.88 266.182 294.922 267.138 294.922 268.318C294.922 269.498 295.88 270.454 297.062 270.454H393.021C394.203 270.454 395.161 269.498 395.161 268.318C395.161 267.138 394.203 266.182 393.021 266.182Z" fill="#1F2937"/>
<path d="M369.804 212.286L405.084 258.987C408.167 262.07 412.23 263.584 416.274 263.525C420.158 263.469 424.025 261.964 426.991 259.009C433.047 252.976 433.005 245.357 427.013 237.141L389.984 187.695" fill="white"/>
<path d="M369.804 212.286L405.084 258.987C408.167 262.07 412.23 263.584 416.274 263.525C420.158 263.469 424.025 261.964 426.991 259.009C433.047 252.976 433.005 245.357 427.013 237.141L389.984 187.695" stroke="#1F2937" stroke-linecap="round" stroke-linejoin="round"/>
<path d="M398.037 234.233L357.409 233.295L356.792 262.383L415.743 263.854C420.105 263.941 424.084 262.218 426.957 259.376C429.716 256.646 431.456 252.886 431.539 248.703" fill="white"/>
<path d="M398.037 234.233L357.409 233.295L356.792 262.383L415.743 263.854C420.105 263.941 424.084 262.218 426.957 259.376C429.716 256.646 431.456 252.886 431.539 248.703" stroke="#1F2937" stroke-linecap="round" stroke-linejoin="round"/>
<path d="M385.199 209.943H304.884C303.602 209.943 302.562 210.981 302.562 212.261V267.624C302.562 268.903 303.602 269.941 304.884 269.941H385.199C386.481 269.941 387.521 268.903 387.521 267.624V212.261C387.521 210.981 386.481 209.943 385.199 209.943Z" fill="#1F2937"/>
<path d="M345.042 246.653C348.755 246.653 351.765 243.648 351.765 239.942C351.765 236.235 348.755 233.23 345.042 233.23C341.328 233.23 338.318 236.235 338.318 239.942C338.318 243.648 341.328 246.653 345.042 246.653Z" fill="white" stroke="#1F2937" stroke-linecap="round" stroke-linejoin="round"/>
<path d="M468.541 144.897H395.295L382.834 154.497L382.901 144.897V106.662H468.541V144.897Z" fill="white" stroke="#1F2937" stroke-linecap="round" stroke-linejoin="round"/>
<path d="M393.259 116.871H458.117" stroke="#1F2937" stroke-linecap="round" stroke-linejoin="round"/>
<path d="M393.259 126.15H458.117" stroke="#1F2937" stroke-linecap="round" stroke-linejoin="round"/>
<path d="M393.259 135.431H424.454" stroke="#1F2937" stroke-linecap="round" stroke-linejoin="round"/>
</g>
<defs>
<clipPath id="clip0_219_831">
<rect width="469" height="320" fill="white"/>
</clipPath>
</defs>
</svg>
