<svg width="311" height="311" viewBox="0 0 311 311" fill="none" xmlns="http://www.w3.org/2000/svg">
<path d="M232.685 240.267H222.156V250.768H232.685V240.267Z" fill="white" stroke="#1F2937" stroke-linecap="round" stroke-linejoin="round"/>
<path d="M197.334 166.557V262.314C197.334 267.794 201.789 272.237 207.284 272.237C212.779 272.237 217.234 267.794 217.234 262.314V245.626H220.255" stroke="#1F2937" stroke-linecap="round" stroke-linejoin="round"/>
<path d="M198.992 166.557L207.037 184.836C207.935 186.877 206.437 189.165 204.203 189.165H182.201C182.201 187.641 183.44 186.406 184.968 186.406H191.465C193.553 186.406 195.043 184.385 194.419 182.397L189.456 166.557" fill="#1F2937"/>
<path d="M198.992 166.557L207.037 184.836C207.935 186.877 206.437 189.165 204.203 189.165H182.201C182.201 187.641 183.44 186.406 184.968 186.406H191.465C193.553 186.406 195.043 184.385 194.419 182.397L189.456 166.557" stroke="#1F2937" stroke-linecap="round" stroke-linejoin="round"/>
<path d="M196.919 166.557L204.964 184.836C205.862 186.877 204.364 189.165 202.13 189.165H180.128C180.128 187.641 181.367 186.406 182.895 186.406H189.392C191.48 186.406 192.97 184.385 192.347 182.397L187.383 166.557" fill="white"/>
<path d="M196.919 166.557L204.964 184.836C205.862 186.877 204.364 189.165 202.13 189.165H180.128C180.128 187.641 181.367 186.406 182.895 186.406H189.392C191.48 186.406 192.97 184.385 192.347 182.397L187.383 166.557" stroke="#1F2937" stroke-linecap="round" stroke-linejoin="round"/>
<path d="M177.018 185.579H176.189C175.502 185.579 174.945 186.134 174.945 186.819C174.945 187.504 175.502 188.06 176.189 188.06H177.018C177.705 188.06 178.262 187.504 178.262 186.819C178.262 186.134 177.705 185.579 177.018 185.579Z" fill="white" stroke="#1F2937" stroke-linecap="round" stroke-linejoin="round"/>
<path d="M181.164 185.579H180.335C179.648 185.579 179.091 186.134 179.091 186.819C179.091 187.504 179.648 188.06 180.335 188.06H181.164C181.851 188.06 182.408 187.504 182.408 186.819C182.408 186.134 181.851 185.579 181.164 185.579Z" fill="white" stroke="#1F2937" stroke-linecap="round" stroke-linejoin="round"/>
<path d="M185.31 185.579H184.481C183.794 185.579 183.237 186.134 183.237 186.819C183.237 187.504 183.794 188.06 184.481 188.06H185.31C185.997 188.06 186.554 187.504 186.554 186.819C186.554 186.134 185.997 185.579 185.31 185.579Z" fill="white" stroke="#1F2937" stroke-linecap="round" stroke-linejoin="round"/>
<path d="M145.509 185.579H144.68C143.993 185.579 143.436 186.134 143.436 186.819C143.436 187.504 143.993 188.06 144.68 188.06H145.509C146.196 188.06 146.753 187.504 146.753 186.819C146.753 186.134 146.196 185.579 145.509 185.579Z" fill="white" stroke="#1F2937" stroke-linecap="round" stroke-linejoin="round"/>
<path d="M141.363 185.579H140.534C139.847 185.579 139.29 186.134 139.29 186.819C139.29 187.504 139.847 188.06 140.534 188.06H141.363C142.05 188.06 142.607 187.504 142.607 186.819C142.607 186.134 142.05 185.579 141.363 185.579Z" fill="white" stroke="#1F2937" stroke-linecap="round" stroke-linejoin="round"/>
<path d="M149.655 185.579H148.826C148.139 185.579 147.582 186.134 147.582 186.819C147.582 187.504 148.139 188.06 148.826 188.06H149.655C150.342 188.06 150.899 187.504 150.899 186.819C150.899 186.134 150.342 185.579 149.655 185.579Z" fill="white" stroke="#1F2937" stroke-linecap="round" stroke-linejoin="round"/>
<path d="M170.385 185.579H169.556C168.869 185.579 168.312 186.134 168.312 186.819C168.312 187.504 168.869 188.06 169.556 188.06H170.385C171.072 188.06 171.629 187.504 171.629 186.819C171.629 186.134 171.072 185.579 170.385 185.579Z" fill="white" stroke="#1F2937" stroke-linecap="round" stroke-linejoin="round"/>
<path d="M166.239 188.06H165.41C164.723 188.06 151.728 187.504 151.728 186.819C151.728 186.134 152.285 185.579 152.972 185.579H166.239C166.926 185.579 167.483 186.134 167.483 186.819C167.483 187.504 166.926 188.06 166.239 188.06Z" fill="white" stroke="#1F2937" stroke-linecap="round" stroke-linejoin="round"/>
<path d="M190.493 186.406H140.741C139.94 186.406 139.29 187.054 139.29 187.853C139.29 188.652 139.94 189.3 140.741 189.3H190.493C191.294 189.3 191.944 188.652 191.944 187.853C191.944 187.054 191.294 186.406 190.493 186.406Z" fill="#1F2937" stroke="#1F2937" stroke-linecap="round" stroke-linejoin="round"/>
<path d="M188.005 186.406H138.254C137.452 186.406 136.803 187.054 136.803 187.853C136.803 188.652 137.452 189.3 138.254 189.3H188.005C188.807 189.3 189.456 188.652 189.456 187.853C189.456 187.054 188.807 186.406 188.005 186.406Z" fill="white" stroke="#1F2937" stroke-linecap="round" stroke-linejoin="round"/>
<path d="M155.276 111.148H224.207C226.826 111.148 228.951 113.268 228.951 115.88V164.145C228.951 167.987 225.823 171.106 221.971 171.106H157.512C153.659 171.106 150.532 167.987 150.532 164.145V115.88C150.532 113.268 152.658 111.148 155.276 111.148H155.276Z" fill="#1F2937" stroke="#1F2937" stroke-linecap="round" stroke-linejoin="round"/>
<path d="M283.03 189.165H75.2871V196.605H283.03V189.165Z" fill="#1F2937" stroke="#1F2937" stroke-linecap="round" stroke-linejoin="round"/>
<path d="M230.619 197.309L249.882 309.132" stroke="#1F2937" stroke-linecap="round" stroke-linejoin="round"/>
<path d="M65.5089 197.309L44.0378 309.69" stroke="#1F2937" stroke-linecap="round" stroke-linejoin="round"/>
<path d="M272.079 197.309L293.415 309.132" stroke="#1F2937" stroke-linecap="round" stroke-linejoin="round"/>
<path d="M106.968 197.309L87.5703 309.69" stroke="#1F2937" stroke-linecap="round" stroke-linejoin="round"/>
<path d="M237.425 189.165H54.5574V196.605H237.425V189.165Z" fill="white" stroke="#1F2937" stroke-linecap="round" stroke-linejoin="round"/>
<path d="M152.788 111.148H221.719C224.338 111.148 226.464 113.268 226.464 115.88V164.145C226.464 167.987 223.336 171.106 219.484 171.106H155.024C151.172 171.106 148.044 167.987 148.044 164.145V115.88C148.044 113.268 150.17 111.148 152.789 111.148H152.788Z" fill="white" stroke="#1F2937" stroke-linecap="round" stroke-linejoin="round"/>
<path d="M221.25 113.422H153.257C151.654 113.422 150.355 114.718 150.355 116.317V157.344C150.355 158.943 151.654 160.239 153.257 160.239H221.25C222.853 160.239 224.153 158.943 224.153 157.344V116.317C224.153 114.718 222.853 113.422 221.25 113.422Z" fill="white" stroke="#1F2937" stroke-linecap="round" stroke-linejoin="round"/>
<path d="M1.31091 309.217H309.689" stroke="#1F2937" stroke-linecap="round" stroke-linejoin="round"/>
<path d="M223.571 242.231H227.996V248.847H223.571C221.741 248.847 220.255 247.365 220.255 245.539C220.255 243.713 221.741 242.231 223.571 242.231Z" fill="white" stroke="#1F2937" stroke-linecap="round" stroke-linejoin="round"/>
<path d="M227.996 244.03H229.654" stroke="#1F2937" stroke-linecap="round" stroke-linejoin="round"/>
<path d="M227.996 247.048H229.654" stroke="#1F2937" stroke-linecap="round" stroke-linejoin="round"/>
<path d="M14.9623 283.218L8.33911 295.976L31.9055 308.678L40.8716 309.038C40.8716 309.038 45.7369 303.966 36.6369 301.028C30.8724 298.036 34.2704 292.529 34.2704 292.529" fill="white"/>
<path d="M14.9623 283.218L8.33911 295.976L31.9055 308.678L40.8716 309.038C40.8716 309.038 45.7369 303.966 36.6369 301.028C30.8724 298.036 34.2704 292.529 34.2704 292.529" stroke="#1F2937" stroke-linecap="round" stroke-linejoin="round"/>
<path d="M75.2068 296.633L74.4058 309.038L109.732 308.984C109.732 308.984 113.576 300.615 103.396 300.608C96.9457 300.604 96.1422 294.238 96.1422 294.238" fill="white"/>
<path d="M75.2068 296.633L74.4058 309.038L109.732 308.984C109.732 308.984 113.576 300.615 103.396 300.608C96.9457 300.604 96.1422 294.238 96.1422 294.238" stroke="#1F2937" stroke-linecap="round" stroke-linejoin="round"/>
<path d="M117.531 213.995L117.424 213.684L90.8245 135.945L61.3965 145.962L86.7826 220.152L72.8555 297.814L100.185 298.115L118.044 221.259C118.481 218.929 118.354 216.398 117.532 213.995H117.531Z" fill="#1F2937"/>
<path d="M38.8538 296.56L8.79932 284.471L40.6701 215.56L44.2273 174.796C44.2273 174.796 45.7497 146.11 49.4827 139.357C53.2609 132.521 83.674 140.328 83.674 140.328L71.1744 221.825L38.8542 296.56L38.8538 296.56Z" fill="#1F2937"/>
<path d="M126.38 72.3862C126.38 72.3862 123.151 65.601 121.433 62.8358C118.469 58.0665 116.4 55.4899 114.37 55.2608C113.936 55.2121 112.922 55.5416 115.073 57.6162C116.347 58.8455 116.815 62.5141 116.815 62.5141" fill="white"/>
<path d="M126.38 72.3862C126.38 72.3862 123.151 65.601 121.433 62.8358C118.469 58.0665 116.4 55.4899 114.37 55.2608C113.936 55.2121 112.922 55.5416 115.073 57.6162C116.347 58.8455 116.815 62.5141 116.815 62.5141" stroke="#1F2937" stroke-linecap="round" stroke-linejoin="round"/>
<path d="M117.944 81.8133C117.944 81.8133 113.442 73.5638 111.783 70.9099C110.144 68.2887 107.931 66.2456 108.388 65.2668C109.229 63.466 114.442 68.6166 115.637 70.6755" fill="white"/>
<path d="M117.944 81.8133C117.944 81.8133 113.442 73.5638 111.783 70.9099C110.144 68.2887 107.931 66.2456 108.388 65.2668C109.229 63.466 114.442 68.6166 115.637 70.6755" stroke="#1F2937" stroke-linecap="round" stroke-linejoin="round"/>
<path d="M126.05 78.4709L118.281 79.0957L112.437 67.9948L112.583 61.7115L118.369 59.276L126.05 78.4709Z" fill="white"/>
<path d="M117.74 61.4812C116.382 58.1442 112.525 54.8151 111.663 54.5124C110.711 54.1783 109.961 55.2228 111.343 56.5274C111.892 57.0455 112.277 57.9007 113.141 58.7318" fill="white"/>
<path d="M117.74 61.4812C116.382 58.1442 112.525 54.8151 111.663 54.5124C110.711 54.1783 109.961 55.2228 111.343 56.5274C111.892 57.0455 112.277 57.9007 113.141 58.7318" stroke="#1F2937" stroke-linecap="round" stroke-linejoin="round"/>
<path d="M115.773 62.639C114.427 59.8528 112.758 57.4069 111.174 56.2057C110.694 55.8418 109.735 55.1393 109.194 55.1885C107.859 55.3101 109.007 57.0836 110.36 58.5619" fill="white"/>
<path d="M115.773 62.639C114.427 59.8528 112.758 57.4069 111.174 56.2057C110.694 55.8418 109.735 55.1393 109.194 55.1885C107.859 55.3101 109.007 57.0836 110.36 58.5619" stroke="#1F2937" stroke-linecap="round" stroke-linejoin="round"/>
<path d="M113.39 70.0329C113.39 70.0329 111.158 64.5349 108.183 58.365C107.993 57.9701 108.162 56.5911 109.688 57.7001C111.617 59.1023 113.548 63.8762 113.548 63.8762" fill="white"/>
<path d="M113.39 70.0329C113.39 70.0329 111.158 64.5349 108.183 58.365C107.993 57.9701 108.162 56.5911 109.688 57.7001C111.617 59.1023 113.548 63.8762 113.548 63.8762" stroke="#1F2937" stroke-linecap="round" stroke-linejoin="round"/>
<path d="M92.4245 72.2799C99.5493 72.2799 105.325 66.5193 105.325 59.4133C105.325 52.3072 99.5493 46.5466 92.4245 46.5466C85.2997 46.5466 79.5239 52.3072 79.5239 59.4133C79.5239 66.5193 85.2997 72.2799 92.4245 72.2799Z" fill="#1F2937"/>
<path d="M83.0895 64.0185C83.0895 64.0185 89.8528 52.8588 96.6812 53.164C101.815 53.3934 103.565 56.2276 105.878 60.4615C107.102 62.7019 106.377 75.6103 104.569 78.3315C103.36 80.1514 101.253 81.3344 97.8963 81.7818L97.5286 89.3023C97.5286 89.3023 97.7832 96.3174 89.8233 95.9659C80.8403 95.5693 82.0372 88.309 82.0372 88.309L83.0895 64.0185Z" fill="white" stroke="#1F2937" stroke-linecap="round" stroke-linejoin="round"/>
<path d="M87.0397 62.6671L86.9071 63.072L85.376 67.7433L83.1778 68.022L81.9211 64.8376L82.4726 59.2785L86.8814 58.5143" fill="#1F2937"/>
<path d="M85.0766 72.7653C83.1123 72.4991 81.7395 70.6734 82.0103 68.6882C82.2694 66.7881 83.9406 65.4343 85.8055 65.5546" fill="white"/>
<path d="M85.0766 72.7654C83.1123 72.4991 81.7395 70.6734 82.0103 68.6882C82.2694 66.7881 83.9406 65.4343 85.8055 65.5546" stroke="#1F2937" stroke-linecap="round" stroke-linejoin="round"/>
<path d="M111.814 59.5671L91.7077 59.0477C91.7077 59.0477 92.6239 64.0131 87.9738 66.0782L87.1836 69.5429L85.6836 69.4759L85.0435 63.6745L86.7408 51.2499L97.903 47.9604L109.104 52.2489L111.814 59.5671Z" fill="#1F2937"/>
<path d="M108.232 62.7751C112.842 62.7751 116.579 59.0476 116.579 54.4495C116.579 49.8515 112.842 46.124 108.232 46.124C103.622 46.124 99.8843 49.8515 99.8843 54.4495C99.8843 59.0476 103.622 62.7751 108.232 62.7751Z" fill="#1F2937"/>
<path d="M98.9464 57.0538C102.928 57.0538 106.155 53.8347 106.155 49.8638C106.155 45.8928 102.928 42.6737 98.9464 42.6737C94.965 42.6737 91.7374 45.8928 91.7374 49.8638C91.7374 53.8347 94.965 57.0538 98.9464 57.0538Z" fill="#1F2937"/>
<path d="M97.8147 81.7814C97.8147 81.7814 94.3897 82.3533 91.1562 80.2167L97.8147 81.7814Z" fill="white"/>
<path d="M97.8147 81.7814C97.8147 81.7814 94.3897 82.3533 91.1562 80.2167" stroke="#1F2937" stroke-linecap="round" stroke-linejoin="round"/>
<path d="M99.3561 66.0972L99.3644 66.0351C99.3694 65.9069 99.3424 65.7874 99.284 65.6766C99.2463 65.5613 99.182 65.4616 99.0912 65.3772C99.0066 65.2867 98.9067 65.2226 98.791 65.185C98.6799 65.1267 98.5601 65.1002 98.4316 65.1047L98.1837 65.1378C98.0257 65.1821 97.8885 65.2619 97.772 65.3772L97.626 65.5654C97.5414 65.7105 97.4992 65.8668 97.4987 66.0351L97.4904 66.0972C97.4855 66.2253 97.5124 66.3448 97.5709 66.4557C97.6086 66.571 97.6729 66.6707 97.7637 66.755C97.8483 66.8456 97.9482 66.9097 98.0638 66.9473C98.175 67.0056 98.2948 67.0321 98.4233 67.0275L98.6712 66.9945C98.8292 66.9502 98.9664 66.8704 99.0829 66.755L99.2289 66.5669C99.3134 66.4218 99.3557 66.2655 99.3561 66.0972Z" fill="#1F2937"/>
<path d="M106.839 66.8063L106.847 66.7443C106.852 66.6161 106.825 66.4966 106.767 66.3858C106.729 66.2704 106.665 66.1708 106.574 66.0864C106.49 65.9959 106.39 65.9318 106.274 65.8941C106.163 65.8358 106.043 65.8094 105.915 65.8139L105.667 65.847C105.509 65.8912 105.371 65.9711 105.255 66.0864L105.109 66.2746C105.024 66.4197 104.982 66.576 104.982 66.7443L104.973 66.8063C104.969 66.9345 104.995 67.054 105.054 67.1648C105.092 67.2802 105.156 67.3799 105.247 67.4642C105.331 67.5548 105.431 67.6189 105.547 67.6565C105.658 67.7148 105.778 67.7413 105.906 67.7367L106.154 67.7036C106.312 67.6594 106.449 67.5796 106.566 67.4642L106.712 67.2761C106.796 67.1309 106.839 66.9746 106.839 66.8063Z" fill="#1F2937"/>
<path d="M103.626 69.5454L103.952 71.3152C104.013 71.6419 103.721 71.9251 103.395 71.856L101.846 71.5269" fill="white"/>
<path d="M103.626 69.5454L103.952 71.3152C104.013 71.6419 103.721 71.9251 103.395 71.856L101.846 71.5269" stroke="#1F2937" stroke-linecap="round" stroke-linejoin="round"/>
<path d="M99.9655 61.958C99.9655 61.958 97.7491 61.1095 96.5571 62.5551" stroke="#1F2937" stroke-linecap="round" stroke-linejoin="round"/>
<path d="M108.425 63.9821C108.425 63.9821 106.949 62.1275 105.186 62.7676" stroke="#1F2937" stroke-linecap="round" stroke-linejoin="round"/>
<path d="M91.1562 80.2167L97.5845 87.8897L97.8643 82.0192C97.8643 82.0192 96.0567 82.1651 94.0758 81.5362C92.0948 80.9073 91.1562 80.2167 91.1562 80.2167Z" fill="#1F2937" stroke="#1F2937" stroke-linecap="round" stroke-linejoin="round"/>
<path d="M101.057 75.0343C101.057 75.0343 100.133 73.3513 97.9253 74.182L101.057 75.0343Z" fill="white"/>
<path d="M101.057 75.0343C101.057 75.0343 100.133 73.3513 97.9253 74.182" stroke="#1F2937" stroke-linecap="round" stroke-linejoin="round"/>
<path d="M65.4252 64.4473C65.4252 64.4473 72.9352 58.6226 75.3166 56.5394C77.6686 54.4818 79.3494 51.9474 80.4024 52.2418C82.3398 52.7835 78.0438 58.8087 76.181 60.3337" fill="white"/>
<path d="M65.4252 64.4473C65.4252 64.4473 72.9352 58.6226 75.3166 56.5394C77.6686 54.4818 79.3494 51.9474 80.4024 52.2418C82.3398 52.7835 78.0438 58.8087 76.181 60.3337" stroke="#1F2937" stroke-linecap="round" stroke-linejoin="round"/>
<path d="M77.7859 56.4282C82.5832 53.3889 85.601 51.952 87.548 52.6338C87.9646 52.7798 88.7416 53.5241 85.8709 54.4686C84.1698 55.028 82.1275 58.1603 82.1275 58.1603" fill="white"/>
<path d="M77.7859 56.4282C82.5832 53.3889 85.601 51.952 87.548 52.6338C87.9646 52.7798 88.7416 53.5241 85.8709 54.4686C84.1698 55.028 82.1275 58.1603 82.1275 58.1603" stroke="#1F2937" stroke-linecap="round" stroke-linejoin="round"/>
<path d="M73.6727 73.3318L65.5641 66.6909L75.7051 59.0655L80.2876 55.7306L87.1065 54.61L89.8134 58.8128L73.6727 73.3318Z" fill="white"/>
<path d="M81.7416 56.8148C84.4476 54.3747 89.4232 53.037 90.3407 53.1396C91.354 53.2529 91.5762 54.5318 89.7433 55.1128C89.0157 55.3435 88.2889 55.9526 87.1367 56.3302" fill="white"/>
<path d="M81.7416 56.8148C84.4476 54.3747 89.4232 53.037 90.3407 53.1396C91.354 53.2529 91.5762 54.5318 89.7433 55.1128C89.0157 55.3435 88.2889 55.9526 87.1367 56.3302" stroke="#1F2937" stroke-linecap="round" stroke-linejoin="round"/>
<path d="M82.7192 59.0527C85.1716 57.1084 87.7674 55.6148 89.7371 55.2166C90.3337 55.0958 91.5157 54.8771 91.9867 55.1595C93.1476 55.8554 91.3221 56.9657 89.4394 57.717" fill="white"/>
<path d="M82.7192 59.0527C85.1716 57.1084 87.7674 55.6148 89.7371 55.2166C90.3337 55.0958 91.5157 54.8771 91.9867 55.1595C93.1476 55.8554 91.3221 56.9657 89.4394 57.717" stroke="#1F2937" stroke-linecap="round" stroke-linejoin="round"/>
<path d="M77.9124 71.1795C77.9124 71.1795 86.3834 62.6175 91.8084 58.3096C92.1554 58.0338 92.6089 56.7052 90.7325 57.0451C88.3602 57.4752 84.5003 60.9713 84.5003 60.9713" fill="white"/>
<path d="M77.9124 71.1795C77.9124 71.1795 86.3834 62.6175 91.8084 58.3096C92.1554 58.0338 92.6089 56.7052 90.7325 57.0451C88.3602 57.4752 84.5003 60.9713 84.5003 60.9713" stroke="#1F2937" stroke-linecap="round" stroke-linejoin="round"/>
<path d="M139.223 120.702C136.91 121.711 134.451 121.794 132.192 121.128C132.192 121.128 115.72 116.687 104.588 113.685C101.238 128.604 96.1466 151.335 96.1466 151.335L49.2559 139.587C49.2559 139.587 53.0163 126.347 55.7111 115.062C56.4367 112.031 57.5727 107.507 58.7874 103.037C49.8736 102.061 40.7069 101.057 40.7069 101.057L40.4126 101.023C31.0386 99.9649 28.0079 87.9443 35.5784 82.5439L70.1017 57.9858L81.1424 72.5164C81.1424 72.5164 74.2187 78.0698 67.7924 83.2262L75.3008 84.0491V84.0532C77.3696 84.1566 79.6623 84.5494 82.1665 85.302L82.0379 88.3082C82.0379 88.3082 80.8398 95.5693 89.824 95.9663C96.1052 96.2434 97.2702 91.9305 97.4775 90.1028L102.138 91.5666C102.237 91.6038 102.328 91.6493 102.428 91.6865L118.174 95.9332L109.994 73.9678L126.947 67.145L144.505 107.28C146.765 112.44 144.401 118.453 139.223 120.702Z" fill="#1F5AF1" stroke="#1F2937" stroke-linecap="round" stroke-linejoin="round"/>
<path d="M67.7926 83.2262L56.9418 92.0488" stroke="#1F2937" stroke-linecap="round" stroke-linejoin="round"/>
<path d="M118.174 95.9332L123.347 109.021" stroke="#1F2937" stroke-linecap="round" stroke-linejoin="round"/>
<path d="M218.373 107.135L227.42 89.3147L228.951 104.66L242.341 98.2249L236.53 111.148L248.732 118.725L234.497 120.753" stroke="#1F2937" stroke-width="1.5" stroke-linecap="round" stroke-linejoin="round"/>
<path d="M145.775 170.846L140.452 181.332L139.551 172.303L131.672 176.089L135.091 168.485L127.911 164.027L136.288 162.833" stroke="#1F2937" stroke-width="1.5" stroke-linecap="round" stroke-linejoin="round"/>
<path d="M233.553 127.092L239.2 132.724" stroke="#1F2937" stroke-width="1.5" stroke-linecap="round" stroke-linejoin="round"/>
<path d="M229.699 254.242L231.221 263.402L234.642 259.836L237.406 269.034" stroke="#1F2937" stroke-width="1.5" stroke-linecap="round" stroke-linejoin="round"/>
<path d="M226.226 255.886L221.676 263.985L226.575 263.432L222.976 272.237" stroke="#1F2937" stroke-width="1.5" stroke-linecap="round" stroke-linejoin="round"/>
</svg>
